<svg xmlns="http://www.w3.org/2000/svg" version="1.1" xmlns:xlink="http://www.w3.org/1999/xlink" xmlns:svgjs="http://svgjs.dev/svgjs" width="128" height="128" viewBox="0 0 128 128"><g transform="matrix(0.8046875,0,0,0.8046875,12.221578124999994,26.501321790018544)"><svg viewBox="0 0 96 69" data-background-color="#ffffff" preserveAspectRatio="xMidYMid meet" height="92" width="128" xmlns="http://www.w3.org/2000/svg" xmlns:xlink="http://www.w3.org/1999/xlink"><g id="tight-bounds" transform="matrix(1,0,0,1,0.25950000000000273,0.4502243510506787)"><svg viewBox="0 0 95.481 68.09955129789863" height="68.09955129789863" width="95.481"><g><svg viewBox="0 0 95.481 68.09955129789863" height="68.09955129789863" width="95.481"><g><svg viewBox="0 0 95.481 68.09955129789863" height="68.09955129789863" width="95.481"><g id="textblocktransform"><svg viewBox="0 0 95.481 68.09955129789863" height="68.09955129789863" width="95.481" id="textblock"><g><svg viewBox="0 0 95.481 68.09955129789863" height="68.09955129789863" width="95.481"><g><svg viewBox="0 0 95.481 68.09955129789863" height="68.09955129789863" width="95.481"><g><svg xmlns="http://www.w3.org/2000/svg" xmlns:xlink="http://www.w3.org/1999/xlink" version="1.1" x="0" y="0" viewBox="9.6 20.5 80.9 57.7" style="enable-background:new 0 0 100 100;" xml:space="preserve" height="68.09955129789863" width="95.481" class="icon-icon-0" data-fill-palette-color="accent" id="icon-0"></svg></g></svg></g></svg></g></svg></g></svg></g></svg></g><defs></defs><mask id="3a713bab-66b5-4285-948a-4dfdc6f022c1"><g id="SvgjsG3507"><svg viewBox="0 0 95.481 68.09955129789863" height="68.09955129789863" width="95.481"><g><svg viewBox="0 0 95.481 68.09955129789863" height="68.09955129789863" width="95.481"><g><svg viewBox="0 0 95.481 68.09955129789863" height="68.09955129789863" width="95.481"><g id="SvgjsG3506"><svg viewBox="0 0 95.481 68.09955129789863" height="68.09955129789863" width="95.481" id="SvgjsSvg3505"><g><svg viewBox="0 0 95.481 68.09955129789863" height="68.09955129789863" width="95.481"><g><svg viewBox="0 0 95.481 68.09955129789863" height="68.09955129789863" width="95.481"><g><svg xmlns="http://www.w3.org/2000/svg" xmlns:xlink="http://www.w3.org/1999/xlink" version="1.1" x="0" y="0" viewBox="9.6 20.5 80.9 57.7" style="enable-background:new 0 0 100 100;" xml:space="preserve" height="68.09955129789863" width="95.481" class="icon-icon-0" data-fill-palette-color="accent" id="SvgjsSvg3504"><g fill="white"><g fill="white"><path d="M50 63.8C57.6 63.8 63.8 57.6 63.8 50S57.6 36.2 50 36.2 36.2 42.4 36.2 50 42.4 63.8 50 63.8" fill="white"></path><path d="M16.5 78.2H83.6C87.4 78.2 90.5 75.1 90.5 71.3V27.4C90.5 23.6 87.4 20.5 83.6 20.5H16.5C12.7 20.5 9.6 23.6 9.6 27.4V71.3C9.6 75.1 12.6 78.2 16.5 78.2M50 32.2C59.8 32.2 67.8 40.2 67.8 50S59.8 67.8 50 67.8 32.2 59.8 32.2 50 40.2 32.2 50 32.2M24.6 31.3C26.7 31.3 28.3 33 28.3 35 28.3 37.1 26.6 38.7 24.6 38.7S20.9 37 20.9 35C20.9 32.9 22.6 31.3 24.6 31.3" fill="white"></path></g></g></svg></g></svg></g></svg></g></svg></g></svg></g></svg></g><defs><mask></mask></defs></svg><rect width="95.481" height="68.09955129789863" fill="black" stroke="none" visibility="hidden"></rect></g></mask><linearGradient x1="0" x2="1" y1="0.578" y2="0.595" id="2172878c-e1b5-4c29-9918-6571c75659f4"><stop stop-color="#6ee2f5" offset="0"></stop><stop stop-color="#6454f0" offset="1"></stop></linearGradient><rect width="95.481" height="68.09955129789863" fill="url(#2172878c-e1b5-4c29-9918-6571c75659f4)" mask="url(#3a713bab-66b5-4285-948a-4dfdc6f022c1)" data-fill-palette-color="accent"></rect></svg><rect width="95.481" height="68.09955129789863" fill="none" stroke="none" visibility="hidden"></rect></g></svg></g></svg>